<?xml version="1.0" standalone="no"?>
<!DOCTYPE svg PUBLIC "-//W3C//DTD SVG 20010904//EN"
 "http://www.w3.org/TR/2001/REC-SVG-20010904/DTD/svg10.dtd">
<svg version="1.0" xmlns="http://www.w3.org/2000/svg"
 width="348.000000pt" height="348.000000pt" viewBox="0 0 348.000000 348.000000"
 preserveAspectRatio="xMidYMid meet">

<g transform="translate(0.000000,348.000000) scale(0.100000,-0.100000)"
fill="#000000" stroke="none">
<path d="M3155 3310 c10 -11 20 -20 23 -20 3 0 -3 9 -13 20 -10 11 -20 20 -23
20 -3 0 3 -9 13 -20z"/>
<path d="M3200 3277 c7 -11 15 -32 16 -49 2 -24 0 -27 -11 -18 -7 6 -12 20
-10 30 2 10 -4 25 -13 32 -15 11 -15 11 -6 -2 11 -16 11 -26 0 -52 -5 -10 -12
-15 -18 -12 -5 3 -4 13 4 22 12 15 11 16 -5 3 -11 -9 -14 -18 -8 -24 11 -11 3
-39 -10 -31 -5 3 -6 11 -3 17 4 7 3 9 -1 4 -5 -4 -18 1 -29 10 -21 18 -21 18
-3 -4 11 -12 14 -24 9 -27 -6 -3 -8 -14 -5 -24 2 -10 -3 -24 -11 -31 -18 -15
-22 -1 -5 16 8 8 8 13 0 17 -6 4 -12 5 -12 2 -1 -3 -3 -10 -4 -16 -1 -5 -3
-15 -4 -21 0 -5 -5 -7 -11 -4 -5 3 -2 -8 8 -25 9 -16 22 -28 29 -26 6 3 16 -8
22 -25 6 -19 17 -29 30 -29 25 0 36 -17 21 -35 -7 -9 -8 -15 0 -20 17 -10 52
5 93 41 34 31 66 41 115 35 16 -2 15 3 -7 47 -27 52 -99 142 -146 183 -22 19
-33 26 -25 16z m66 -69 c3 -10 10 -18 15 -18 6 0 7 -4 4 -10 -3 -5 -1 -10 4
-10 6 0 10 -3 10 -7 -4 -25 2 -53 11 -48 5 3 7 13 4 23 -5 14 -4 14 4 2 6 -8
7 -19 3 -25 -10 -14 -8 -35 4 -32 5 1 9 9 7 17 -3 13 -2 13 7 0 6 -9 7 -18 1
-24 -6 -6 -5 -16 3 -25 8 -11 5 -11 -9 2 -18 15 -23 15 -32 4 -7 -8 -11 -16
-9 -18 1 -2 0 -2 -3 -1 -3 2 -6 8 -6 13 -3 19 -4 20 -14 14 -7 -4 -6 -14 1
-28 9 -20 9 -20 -4 -5 -8 10 -17 15 -20 11 -4 -3 -2 -12 4 -19 7 -8 6 -14 -2
-20 -7 -4 -9 -3 -5 4 3 6 2 13 -3 16 -13 8 -21 -19 -10 -33 5 -6 6 -9 2 -6 -3
3 -14 -2 -23 -10 -14 -13 -16 -12 -17 8 -2 17 0 19 7 7 5 -8 10 -13 11 -10 1
6 6 31 9 45 1 6 2 19 1 29 -1 26 -15 11 -16 -17 0 -22 -21 -30 -40 -16 -5 4
-13 8 -17 8 -5 1 -8 4 -9 9 -1 13 -32 42 -40 36 -4 -2 -13 5 -19 17 -7 12 -8
19 -2 15 13 -8 44 28 40 47 -2 9 2 15 7 14 6 -1 10 -13 10 -27 1 -34 -6 -45
-16 -29 -6 10 -8 8 -7 -6 2 -16 9 -21 34 -21 20 0 30 4 26 11 -3 5 3 3 13 -5
15 -12 17 -12 10 -1 -6 10 -4 12 5 6 9 -6 11 -4 5 5 -6 9 -4 11 5 5 9 -6 11
-4 5 5 -6 9 -4 11 5 5 9 -6 11 -4 5 5 -5 9 -4 11 3 6 8 -5 10 -1 6 11 -5 15
-4 16 6 3 9 -12 10 -10 5 10 -4 17 -3 21 3 11 7 -10 9 -5 8 17 -1 17 -5 34 -9
39 -5 4 -5 -1 -1 -11 5 -13 4 -17 -4 -12 -8 5 -10 1 -5 -11 4 -11 2 -15 -3
-10 -5 5 -9 23 -9 42 -1 29 1 31 17 21 10 -6 21 -19 24 -28z m-36 -49 c0 -10
-41 -59 -48 -58 -4 1 -9 0 -12 -1 -22 -8 -39 -7 -33 3 4 7 8 21 8 32 0 11 9
35 20 53 l20 33 22 -28 c13 -15 23 -31 23 -34z"/>
<path d="M3265 3173 c4 -16 -4 -33 -29 -61 -31 -34 -41 -39 -76 -37 -37 2 -39
1 -25 -15 8 -9 12 -20 8 -24 -5 -4 -3 -7 2 -6 6 1 12 1 15 0 28 -10 42 -7 37
10 -3 11 2 25 10 31 11 10 15 8 20 -10 5 -20 7 -21 24 -5 14 12 16 21 8 41 -6
17 -6 22 3 17 6 -4 8 -3 5 2 -3 6 -1 16 4 24 6 10 7 3 4 -21 -4 -25 -1 -40 9
-48 22 -18 28 2 12 44 -14 38 -36 80 -31 58z m-18 -90 c0 -16 -1 -20 -4 -10
-3 10 -9 14 -16 10 -7 -4 -6 1 2 10 17 22 16 22 18 -10z m48 18 c3 -5 2 -12
-3 -15 -5 -3 -9 1 -9 9 0 17 3 19 12 6z m-109 -48 c-3 -22 -12 -24 -29 -5 -15
17 -15 18 7 18 13 0 23 -5 22 -13z"/>
<path d="M3187 3176 c3 -13 -1 -27 -7 -31 -9 -5 -10 -1 -6 16 6 21 6 22 -4 6
-7 -10 -13 -30 -15 -45 l-3 -25 20 24 c17 20 19 21 14 4 -5 -16 -3 -16 14 5
11 14 20 30 20 35 0 6 -5 3 -10 -5 -8 -12 -10 -11 -10 7 0 12 -4 24 -9 27 -4
3 -6 -5 -4 -18z"/>
<path d="M3126 3238 c3 -5 10 -6 15 -3 13 9 11 12 -6 12 -8 0 -12 -4 -9 -9z"/>
<path d="M3079 3197 c6 -8 7 -18 3 -22 -4 -5 -1 -5 6 -1 10 6 10 11 1 22 -6 8
-14 14 -16 14 -3 0 0 -6 6 -13z"/>
<path d="M3055 3181 c-3 -5 -2 -12 3 -15 5 -3 9 1 9 9 0 17 -3 19 -12 6z"/>
<path d="M2916 3088 c3 -5 10 -6 15 -3 13 9 11 12 -6 12 -8 0 -12 -4 -9 -9z"/>
<path d="M2989 3055 c-1 -3 -3 -9 -4 -15 -1 -5 -3 -13 -4 -17 -1 -5 -6 -1 -12
7 -9 13 -10 12 -5 -2 3 -10 1 -20 -4 -23 -6 -4 -11 4 -11 17 -1 16 -3 18 -6 6
-2 -10 0 -25 6 -35 6 -10 11 -13 11 -6 0 7 7 10 18 7 13 -5 14 -4 3 4 -11 8
-11 11 0 18 8 5 20 9 27 10 22 4 22 9 2 22 -11 7 -21 10 -21 7z"/>
<path d="M2935 2970 c6 -25 6 -25 -11 -5 -13 15 -15 16 -11 3 3 -9 -1 -22 -10
-30 -14 -11 -15 -10 -9 12 6 22 5 23 -5 7 -8 -14 -8 -22 0 -30 6 -6 11 -16 11
-21 -1 -6 -10 0 -20 13 -17 19 -18 26 -8 40 10 13 8 12 -8 -2 -11 -9 -23 -14
-27 -11 -7 8 -2 -21 9 -51 4 -11 4 -17 -1 -13 -4 4 -14 3 -22 -3 -16 -14 -18
2 -2 18 7 7 7 13 0 17 -5 4 -7 14 -4 24 3 9 3 14 -1 10 -12 -10 -16 -77 -5
-83 5 -4 6 -11 3 -17 -4 -6 -12 -1 -21 13 l-14 24 7 -25 c6 -22 5 -23 -9 -12
-16 14 -16 48 0 45 5 -1 10 5 10 12 0 10 -4 12 -12 5 -7 -5 -14 -7 -18 -4 -3
3 -4 -2 -3 -13 2 -10 -1 -23 -6 -30 -6 -7 -5 -19 1 -32 16 -29 13 -39 -5 -16
-13 16 -15 17 -12 3 3 -16 1 -18 -24 -18 -9 0 -8 4 2 11 13 9 12 10 -3 5 -15
-5 -17 -2 -13 17 4 14 0 10 -10 -10 l-17 -32 -19 22 c-18 20 -18 19 1 -8 11
-16 44 -55 74 -86 29 -31 66 -73 82 -93 24 -31 30 -35 37 -22 11 20 4 116 -8
116 -5 0 -8 -9 -8 -20 1 -16 -1 -18 -12 -9 -10 8 -11 15 -4 24 5 6 7 15 3 18
-3 4 -12 -1 -20 -11 -12 -16 -13 -15 -6 3 6 18 5 18 -10 6 -9 -7 -14 -18 -10
-24 3 -6 1 -7 -6 -3 -8 6 -9 12 -2 20 6 7 8 16 4 20 -4 3 -8 17 -10 29 -2 17
-1 19 7 7 9 -13 10 -13 10 0 0 13 1 13 10 0 6 -9 10 -10 10 -3 0 6 -4 15 -10
18 -5 3 -10 11 -10 17 0 17 30 -12 31 -31 1 -9 5 -6 10 9 7 20 8 18 3 -12 -2
-20 -1 -39 4 -42 5 -3 9 11 10 31 2 44 12 57 13 17 l1 -29 8 30 8 30 1 -28 c0
-16 5 -26 11 -22 5 3 7 12 4 20 -7 18 25 67 39 58 6 -4 7 -1 2 7 -6 9 -4 11 5
5 9 -6 11 -4 5 5 -6 9 -4 11 5 5 9 -6 11 -4 5 5 -5 8 -4 11 3 7 6 -4 9 0 8 10
-2 10 -1 12 1 4 4 -12 6 -12 15 0 8 11 9 10 4 -3 -3 -10 -1 -20 4 -23 5 -3 7
-12 3 -21 -3 -9 0 -14 8 -12 9 2 14 -6 15 -22 1 -14 2 -27 4 -30 7 -19 7 -39
-1 -34 -5 3 -7 9 -4 14 3 5 1 11 -4 14 -5 4 -7 18 -5 33 4 22 3 24 -10 14 -15
-12 -16 -28 -3 -48 5 -7 5 -13 1 -13 -3 0 0 -8 7 -17 13 -16 12 -17 -3 -5 -10
8 -16 17 -15 20 2 7 -7 12 -18 12 -3 0 -1 -10 5 -22 9 -18 6 -16 -10 5 -12 15
-26 25 -31 21 -13 -8 -11 -24 2 -21 6 1 14 -5 16 -13 3 -10 2 -11 -4 -4 -4 6
-16 10 -25 9 -11 -2 -15 2 -11 13 3 10 -4 6 -15 -8 -11 -13 -18 -28 -15 -33 3
-5 8 -5 12 1 4 6 39 6 104 -1 53 -5 100 -8 103 -4 3 3 8 23 11 44 4 34 1 40
-29 61 -19 12 -42 22 -50 22 -20 0 -32 31 -24 63 3 12 3 17 0 10 -3 -7 -12 -9
-20 -6 -12 5 -11 10 8 31 13 14 18 22 11 19 -6 -4 -14 -1 -16 5 -4 9 -6 8 -7
-2 0 -10 -6 -6 -16 10 l-15 25 6 -25z m-8 -40 c-3 -11 -1 -18 4 -14 5 3 9 11
9 18 0 7 7 13 15 13 12 0 11 -5 -5 -22 -11 -12 -20 -25 -20 -29 0 -14 -62 -80
-77 -82 -7 -1 -13 2 -13 6 0 12 17 22 23 13 2 -5 2 -2 0 5 -1 8 2 10 9 6 7 -5
8 -3 3 6 -6 9 -4 11 5 5 9 -6 11 -4 5 5 -5 9 -4 11 3 6 8 -5 10 -1 5 10 -4 11
-8 13 -11 6 -2 -7 -9 -9 -14 -6 -6 4 -8 2 -4 -4 3 -6 1 -14 -5 -18 -8 -5 -10
0 -6 17 3 13 2 31 -3 39 -16 26 1 31 22 5 19 -25 44 -25 34 0 -2 7 1 18 7 24
16 16 20 14 14 -9z m-90 -101 c-11 -18 -36 -21 -54 -6 -7 5 -13 6 -13 1 0 -12
-20 18 -20 30 0 5 8 2 18 -7 10 -10 22 -14 25 -10 4 3 7 0 7 -8 1 -13 22 15
26 34 4 20 6 20 13 2 5 -11 4 -27 -2 -36z m188 -27 c-1 -9 2 -22 7 -29 6 -7 5
-14 -2 -18 -6 -4 -10 -3 -9 2 1 4 0 10 -1 13 -6 15 -6 59 1 55 4 -3 6 -13 4
-23z m-307 -36 c1 -16 -1 -18 -8 -6 -5 8 -10 11 -10 6 0 -5 -6 -3 -14 4 -8 6
-12 18 -10 25 8 20 39 -2 42 -29z m337 35 c3 -5 2 -12 -3 -15 -5 -3 -9 1 -9 9
0 17 3 19 12 6z m-313 -28 c-3 -16 -7 -22 -10 -15 -4 13 4 42 11 42 2 0 2 -12
-1 -27z m338 13 c0 -2 -8 -10 -17 -17 -16 -13 -17 -12 -4 4 13 16 21 21 21 13z
m-275 -106 c10 -11 16 -20 13 -20 -3 0 -13 9 -23 20 -10 11 -16 20 -13 20 3 0
13 -9 23 -20z"/>
<path d="M2906 2883 c-6 -14 -5 -15 5 -6 7 7 10 15 7 18 -3 3 -9 -2 -12 -12z"/>
<path d="M2685 2780 c3 -5 8 -10 11 -10 2 0 4 5 4 10 0 6 -5 10 -11 10 -5 0
-7 -4 -4 -10z"/>
<path d="M2763 2935 c0 -8 4 -12 9 -9 5 3 6 10 3 15 -9 13 -12 11 -12 -6z"/>
<path d="M3024 2926 c-16 -5 -23 -13 -20 -23 3 -8 1 -11 -4 -8 -6 3 -10 2 -10
-3 0 -12 62 -22 73 -12 4 4 9 17 10 29 1 20 3 21 13 6 11 -15 17 -15 48 -4 20
7 36 16 36 19 0 10 -115 7 -146 -4z m3 -28 c-3 -8 -6 -5 -6 6 -1 11 2 17 5 13
3 -3 4 -12 1 -19z m29 7 c-3 -23 -12 -26 -13 -5 -1 11 2 20 7 20 4 0 7 -7 6
-15z"/>
<path d="M2726 2875 c-3 -10 -11 -13 -18 -9 -10 6 -11 5 -1 -8 7 -8 11 -18 8
-21 -3 -4 -2 -4 3 -1 4 3 7 9 7 12 0 4 4 13 9 20 4 7 6 15 3 18 -2 3 -7 -2
-11 -11z"/>
<path d="M2931 2844 c-11 -15 -18 -31 -14 -38 4 -6 10 -1 13 14 l6 25 5 -26
c5 -22 2 -26 -17 -25 -13 1 -27 6 -31 10 -4 5 -3 7 2 3 6 -3 12 4 12 15 2 21
2 21 -13 -1 -18 -25 -11 -62 8 -43 8 8 15 8 24 1 12 -9 26 2 30 24 1 4 2 8 4
10 6 7 6 49 -1 53 -4 2 -17 -8 -28 -22z"/>
<path d="M2640 2846 c0 -2 8 -10 18 -17 15 -13 16 -12 3 4 -13 16 -21 21 -21
13z"/>
<path d="M2489 2783 c-13 -16 -12 -17 4 -4 16 13 21 21 13 21 -2 0 -10 -8 -17
-17z"/>
<path d="M2497 2758 c-12 -17 -21 -35 -19 -42 2 -7 -1 -7 -9 1 -10 10 -17 9
-32 -5 -10 -9 -22 -16 -26 -15 -3 0 -5 -2 -4 -6 1 -4 -4 -8 -12 -8 -8 0 -12 4
-9 9 3 4 0 8 -5 8 -6 0 -11 -6 -11 -13 0 -14 -27 -43 -45 -49 -5 -2 -9 -6 -8
-10 2 -5 -3 -7 -10 -5 -6 1 -11 -5 -9 -13 3 -11 -2 -10 -17 4 -17 16 -19 22
-8 35 11 14 10 14 -6 2 -13 -10 -15 -17 -6 -27 6 -8 8 -14 3 -14 -5 -1 6 -14
25 -30 l34 -29 65 46 c74 53 174 93 234 93 l41 0 -24 26 c-26 28 -86 67 -107
70 -7 1 -23 -11 -35 -28z m65 4 c9 -9 6 -11 -10 -7 -13 2 -22 -1 -22 -8 0 -7
-4 -6 -10 3 -8 12 -10 12 -10 1 0 -8 -3 -11 -6 -8 -10 10 15 35 32 33 8 -1 19
-7 26 -14z"/>
<path d="M2459 2775 c-1 -3 -2 -11 -3 -17 -1 -7 -11 -12 -23 -12 -12 1 -21 -2
-20 -6 1 -5 -2 -7 -8 -6 -5 0 -9 5 -7 9 1 5 -2 6 -8 2 -8 -5 -8 -11 -1 -19 6
-7 7 -17 3 -22 -4 -4 1 -2 11 5 9 7 17 10 17 6 0 -5 9 -1 20 8 11 10 23 17 27
16 4 0 9 4 11 10 2 6 -1 11 -8 11 -6 0 -8 5 -5 10 3 6 4 10 1 10 -3 0 -7 -2
-7 -5z"/>
<path d="M2764 2758 c-3 -4 -4 -8 -2 -9 27 -6 38 -5 38 5 0 14 -28 17 -36 4z"/>
<path d="M2837 2743 c3 -7 9 -10 14 -7 14 8 11 21 -5 21 -8 0 -12 -6 -9 -14z"/>
<path d="M3349 2720 c-28 -14 -44 -17 -66 -11 -35 10 -63 -2 -63 -29 0 -11
-16 -27 -42 -42 -44 -24 -53 -37 -62 -79 -3 -15 -14 -29 -23 -33 -10 -3 -25
-10 -33 -15 -8 -5 -32 -13 -53 -18 -21 -4 -38 -12 -38 -18 1 -19 70 -15 128 6
42 15 92 22 178 26 66 3 127 9 135 13 25 13 55 -12 58 -48 2 -23 -2 -34 -13
-38 -13 -6 -14 -8 -3 -15 29 -19 31 -6 24 127 -9 189 -35 223 -127 174z m67
-68 c-4 -3 -11 -1 -18 6 -8 8 -8 15 3 28 13 16 14 16 17 -5 2 -13 1 -25 -2
-29z m10 -27 c6 -16 -12 -45 -27 -45 -10 0 -12 44 -2 53 11 11 23 8 29 -8z"/>
<path d="M2351 2688 c-1 -11 -8 -16 -21 -13 -11 2 -19 -1 -17 -8 1 -7 -4 -11
-11 -9 -8 1 -11 -2 -7 -8 3 -5 1 -10 -4 -10 -6 0 -11 -5 -11 -12 0 -6 10 -2
23 10 13 12 26 20 29 17 9 -9 30 23 25 37 -4 8 -6 7 -6 -4z"/>
<path d="M2704 2592 c-15 -78 -54 -156 -108 -218 l-45 -51 52 -102 c47 -94 53
-100 62 -79 17 39 58 87 79 94 48 15 73 43 79 86 4 29 14 50 31 64 l25 22 -32
49 c-18 26 -52 75 -77 108 -25 33 -47 65 -50 72 -3 8 -10 -13 -16 -45z"/>
<path d="M2163 2535 c0 -8 4 -12 9 -9 4 3 8 9 8 15 0 5 -4 9 -8 9 -5 0 -9 -7
-9 -15z"/>
<path d="M2143 2521 c0 -11 5 -18 9 -15 4 3 5 11 1 19 -7 21 -12 19 -10 -4z"/>
<path d="M2189 2533 c-1 -5 -1 -12 0 -16 1 -5 -3 -6 -8 -3 -5 3 -20 -7 -33
-23 -24 -27 -25 -28 -40 -9 -14 17 -15 17 -16 -12 -1 -37 -10 -53 -24 -44 -8
5 -9 1 -5 -10 4 -9 3 -15 -2 -12 -5 3 -12 -1 -15 -10 -3 -9 -11 -12 -18 -8 -8
5 -9 2 -5 -9 3 -9 2 -19 -2 -21 -7 -5 -8 10 -2 49 1 6 5 4 10 -4 7 -11 11 -8
17 10 13 39 12 46 -2 46 -9 0 -11 -4 -5 -10 11 -11 3 -39 -10 -31 -5 3 -6 11
-3 17 4 7 3 8 -2 4 -5 -5 -9 -12 -10 -15 -11 -67 -44 -117 -60 -91 -5 8 -3 10
6 4 9 -6 11 -4 5 5 -6 9 -4 11 6 5 12 -8 12 -6 0 8 -16 20 -22 22 -18 5 1 -8
-7 -13 -20 -12 -13 1 -20 -3 -17 -7 3 -5 10 -7 15 -4 5 4 9 2 9 -2 0 -5 20
-19 44 -30 l44 -22 91 86 c50 46 89 89 86 94 -4 5 0 6 8 4 7 -3 21 3 31 14 16
18 16 20 -12 40 -32 22 -41 25 -43 14z m-75 -79 c3 -8 2 -12 -4 -9 -6 3 -10
10 -10 16 0 14 7 11 14 -7z"/>
<path d="M2117 2506 c-3 -8 -2 -18 3 -21 13 -8 20 9 11 24 -6 10 -10 9 -14 -3z"/>
<path d="M2890 2505 c0 -3 7 -17 16 -30 13 -19 18 -22 29 -12 11 10 10 15 -2
30 -15 16 -43 24 -43 12z"/>
<path d="M2068 2453 c5 -21 7 -23 10 -9 2 10 0 22 -6 28 -6 6 -7 0 -4 -19z"/>
<path d="M775 2442 c10 -11 178 -72 196 -72 4 0 10 8 13 17 4 10 4 14 0 10 -4
-4 -14 -1 -22 6 -13 10 -14 9 -7 -3 7 -12 6 -13 -7 -3 -8 7 -18 10 -21 6 -4
-3 -7 0 -7 7 0 7 -3 10 -7 7 -3 -4 -13 -1 -21 6 -13 10 -14 9 -7 -2 6 -11 5
-12 -6 -5 -15 9 -16 9 -63 19 -16 3 -34 9 -40 12 -8 4 -8 2 -1 -5z"/>
<path d="M1975 2380 c6 -30 16 -40 12 -12 -2 12 -6 24 -10 28 -3 4 -4 -4 -2
-16z"/>
<path d="M1061 2357 c-9 -12 3 -18 66 -37 43 -13 84 -23 93 -24 8 -1 17 -4 20
-7 3 -3 38 -16 78 -28 70 -21 73 -21 97 -4 13 10 27 24 30 32 4 11 2 11 -9 2
-8 -7 -16 -8 -18 -4 -3 4 -3 1 -1 -7 2 -10 -3 -8 -12 5 -16 21 -33 26 -50 15
-17 -11 -34 -6 -50 15 -9 11 -14 14 -10 8 3 -7 1 -13 -4 -13 -6 0 -11 6 -11
13 0 8 -4 7 -10 -3 -8 -12 -10 -12 -10 -1 0 11 -3 11 -15 1 -13 -11 -14 -10
-8 6 6 16 5 17 -9 6 -13 -10 -18 -10 -24 -1 -5 8 -3 10 7 4 8 -5 10 -4 6 0
-12 14 -38 15 -30 2 3 -7 -2 -4 -13 5 -16 14 -23 15 -34 5 -10 -9 -11 -9 -6 1
4 6 4 12 -1 13 -4 0 -16 2 -26 4 -11 2 -15 -1 -10 -8 4 -8 1 -8 -9 1 -12 10
-18 10 -27 -1z"/>
<path d="M682 2279 c15 -19 31 -33 37 -31 6 1 11 -3 11 -9 0 -5 5 -7 12 -3 8
5 9 2 5 -9 -3 -9 -3 -16 1 -16 21 3 42 -2 38 -10 -3 -4 4 -17 16 -27 15 -13
19 -14 14 -4 -4 9 -1 8 7 -3 12 -14 16 -15 26 -4 11 14 -32 48 -164 131 l-29
18 26 -33z m29 -16 c13 -16 12 -17 -3 -4 -10 7 -18 15 -18 17 0 8 8 3 21 -13z
m109 -69 c0 -8 -19 -13 -24 -6 -3 5 1 9 9 9 8 0 15 -2 15 -3z"/>
<path d="M2379 2152 c-63 -59 -114 -109 -114 -112 1 -3 11 -36 24 -75 31 -95
39 -229 17 -315 -19 -77 -75 -194 -110 -232 l-25 -26 39 -168 c22 -92 42 -169
45 -172 10 -10 142 118 196 191 91 122 145 250 169 399 10 63 10 79 -2 99 -8
14 -13 42 -11 69 13 157 -6 243 -82 387 l-32 61 -114 -106z"/>
<path d="M1642 2233 c-7 -10 -10 -12 -7 -5 9 17 -21 14 -74 -7 l-45 -18 35
-11 c18 -6 92 -27 163 -46 l129 -35 52 47 c51 46 52 47 30 59 -12 7 -40 16
-62 21 -38 9 -40 8 -37 -15 2 -19 0 -22 -11 -13 -10 8 -15 8 -20 0 -5 -8 -10
-8 -20 0 -10 8 -15 8 -21 -1 -5 -9 -14 -4 -30 16 l-23 29 -10 -24 -10 -25 -1
25 c-1 25 -1 25 -10 3 -12 -28 -20 -30 -13 -3 7 25 2 25 -15 3z m71 -13 c3
-11 1 -18 -4 -14 -5 3 -9 12 -9 20 0 20 7 17 13 -6z"/>
<path d="M1755 2240 c-4 -6 -11 -8 -16 -5 -5 3 -6 -1 -3 -10 4 -9 7 -15 8 -13
1 2 8 11 15 21 7 9 11 17 8 17 -3 0 -9 -5 -12 -10z"/>
<path d="M1800 2239 c0 -5 -4 -8 -9 -4 -5 3 -12 1 -15 -4 -4 -5 -2 -12 3 -15
5 -4 12 -2 16 4 4 6 11 8 16 5 5 -3 6 1 3 9 -7 18 -14 21 -14 5z"/>
<path d="M916 2114 c-9 -25 -7 -41 4 -24 8 13 10 13 10 -2 0 -9 5 -20 12 -24
7 -5 9 -2 4 7 -4 8 -1 5 8 -5 8 -10 13 -22 11 -26 -2 -4 2 -7 10 -7 12 0 12 3
2 16 -11 14 -10 14 6 2 9 -7 17 -19 17 -26 0 -6 8 -19 18 -28 15 -13 21 -14
32 -4 10 9 11 9 6 0 -4 -7 -2 -13 4 -13 6 0 23 -12 37 -27 15 -16 23 -21 18
-13 -4 8 5 2 20 -13 17 -18 24 -34 20 -45 -4 -12 -3 -14 4 -7 6 6 13 26 16 46
l6 36 -118 80 c-148 100 -140 96 -147 77z m124 -120 c0 -3 -7 -1 -15 6 -8 7
-15 17 -15 22 0 5 7 3 15 -6 8 -8 15 -18 15 -22z"/>
<path d="M1060 1966 c0 -2 7 -9 15 -16 9 -7 15 -8 15 -2 0 5 -7 12 -15 16 -8
3 -15 4 -15 2z"/>
<path d="M2122 1913 l-52 -48 36 -170 c19 -93 37 -171 38 -172 2 -2 15 23 30
56 28 64 46 141 46 203 0 47 -29 178 -39 178 -4 0 -31 -21 -59 -47z"/>
<path d="M1123 1913 c0 -11 7 -20 14 -20 10 0 10 4 1 16 -7 9 -13 18 -15 20
-1 2 -1 -5 0 -16z"/>
<path d="M1270 1876 c0 -7 -3 -35 -7 -61 -4 -32 -3 -46 4 -42 6 4 11 -4 11
-18 0 -14 -4 -23 -8 -20 -4 2 -4 -15 1 -38 4 -23 8 -47 9 -53 0 -5 6 -18 13
-28 11 -15 20 -9 93 64 l81 81 -94 64 c-52 36 -97 65 -99 65 -2 0 -4 -6 -4
-14z m27 -96 c3 -11 10 -17 17 -13 6 3 6 0 -1 -8 -19 -20 -16 -33 5 -18 15 12
16 12 5 -2 -7 -9 -9 -20 -5 -25 4 -4 0 -3 -10 4 -13 10 -17 10 -21 0 -3 -7 -3
5 -1 26 3 25 0 43 -8 48 -10 6 -10 8 0 8 8 0 16 -9 19 -20z"/>
<path d="M2695 1603 c-33 -220 -202 -488 -384 -608 -27 -19 -40 -33 -37 -44
25 -83 47 -195 42 -214 -6 -27 -72 -117 -85 -117 -5 0 -42 56 -82 125 -56 96
-77 124 -89 119 -8 -4 -42 -14 -75 -24 -48 -14 -63 -23 -74 -46 -69 -143 -77
-154 -125 -154 -40 0 -131 -46 -146 -74 -15 -29 -20 -75 -8 -82 10 -7 221 -6
258 0 14 3 43 7 65 11 112 16 263 68 389 133 305 157 545 448 641 777 14 48
25 93 25 100 0 20 -33 24 -76 9 -21 -8 -46 -14 -55 -14 -25 0 -138 87 -149
114 -15 41 -28 37 -35 -11z"/>
<path d="M3195 1560 c-22 -4 -59 -16 -81 -28 -37 -19 -43 -27 -54 -74 -62
-267 -241 -552 -455 -723 -28 -22 -52 -43 -55 -46 -31 -34 -246 -153 -261
-143 -7 4 -9 3 -6 -2 10 -17 -179 -79 -333 -110 -19 -3 -110 -7 -202 -9 l-166
-2 -62 -71 c-57 -66 -65 -72 -100 -72 -21 0 -50 4 -64 10 -17 6 -26 6 -26 0 0
-6 4 -10 9 -10 5 0 17 -14 25 -32 15 -30 15 -33 -6 -55 -24 -25 -75 -43 -125
-43 -26 0 -31 -3 -28 -20 6 -32 -21 -52 -62 -44 -33 6 -35 6 -24 -15 7 -11 19
-21 29 -21 13 0 9 -6 -13 -25 l-30 -24 720 -1 c410 0 780 5 858 11 148 11 296
43 368 79 152 77 286 217 350 368 52 120 79 336 79 633 0 144 0 146 -26 170
-35 33 -54 71 -44 90 5 8 12 42 15 75 7 58 6 61 -16 68 -13 4 -43 7 -66 6 -37
-1 -44 2 -57 28 -18 34 -35 40 -91 32z"/>
<path d="M1640 1468 c-36 -32 -54 -56 -52 -68 2 -10 -2 -21 -8 -25 -19 -12
-10 -24 15 -19 15 2 31 1 38 -3 7 -4 14 -8 17 -8 58 -9 92 -20 98 -32 6 -9 20
-13 40 -11 l32 3 -63 106 -62 107 -55 -50z"/>
<path d="M713 1474 c-5 -13 -7 -13 -14 -2 -7 10 -9 9 -9 -4 0 -11 -6 -15 -20
-11 -11 3 -17 10 -13 17 3 6 -3 3 -14 -7 -11 -9 -22 -14 -26 -11 -3 3 -3 -5 0
-18 5 -23 5 -23 -11 -3 -16 19 -16 19 -6 -7 7 -21 6 -27 -3 -25 -7 1 -11 -4
-9 -11 1 -8 -2 -11 -8 -7 -8 5 -7 11 1 21 6 8 9 17 5 21 -3 3 -6 1 -6 -6 0 -7
-5 -9 -12 -5 -6 4 -8 3 -4 -4 3 -6 2 -14 -4 -17 -8 -5 -8 -11 0 -20 8 -10 8
-15 -1 -21 -8 -5 -9 -3 -4 6 5 8 4 11 -2 7 -10 -6 -10 -73 0 -84 4 -3 7 -14 7
-23 0 -10 7 -23 15 -30 8 -7 13 -16 10 -20 -3 -4 2 -13 10 -20 8 -7 12 -17 8
-23 -3 -6 -1 -7 6 -3 6 4 9 11 6 16 -3 4 -1 10 4 12 5 1 11 16 13 33 2 23 -1
30 -17 33 -26 6 -37 23 -23 39 7 9 3 16 -16 24 l-25 12 42 34 c23 18 52 36 64
39 12 3 25 15 28 25 4 10 12 19 20 19 7 0 15 9 18 20 6 24 -1 27 -10 4z m-43
-31 c0 -3 -7 -2 -16 1 -12 5 -15 2 -10 -11 6 -14 4 -15 -5 -6 -14 14 -3 34 16
26 8 -3 15 -7 15 -10z m-103 -148 c0 -8 -4 -12 -9 -9 -5 3 -6 10 -3 15 9 13
12 11 12 -6z m24 -49 c5 3 8 0 7 -8 -2 -7 2 -12 9 -11 6 1 10 -4 9 -13 -1 -8
-6 -13 -12 -12 -5 2 -8 6 -7 10 1 3 -4 12 -12 18 -8 7 -14 20 -14 29 1 13 2
13 6 -2 2 -9 9 -15 14 -11z"/>
<path d="M629 1138 c7 -10 10 -18 7 -18 -4 0 4 -15 18 -33 14 -19 23 -37 18
-42 -4 -5 -2 -5 4 -2 7 4 14 -3 18 -16 3 -12 15 -33 26 -47 16 -20 19 -21 13
-5 -3 11 -17 36 -29 56 -13 20 -21 40 -18 43 2 3 1 4 -3 1 -6 -5 -38 34 -38
47 0 4 -7 13 -15 20 -12 11 -12 11 -1 -4z"/>
<path d="M568 1049 c10 -13 10 -19 0 -27 -7 -6 -16 -10 -20 -9 -3 1 -10 -2
-15 -6 -4 -5 -3 -7 2 -5 6 2 11 -1 13 -7 1 -5 -7 -11 -18 -11 -11 -1 -23 -3
-27 -4 -5 -1 -11 -2 -14 -2 -3 1 -6 -6 -6 -13 0 -12 3 -12 15 -2 8 6 22 12 31
12 9 0 21 3 27 7 7 5 11 -4 11 -24 0 -26 -2 -28 -12 -14 -18 25 -23 2 -14 -69
l7 -60 -2 63 c-2 42 1 59 8 52 5 -5 9 -33 9 -62 l-1 -53 8 50 c8 55 13 51 10
-9 -1 -21 2 -36 7 -33 6 4 9 19 8 34 -2 19 -1 20 2 5 2 -12 8 -20 13 -17 6 3
5 16 0 30 -10 26 -10 27 18 29 9 1 22 5 29 9 16 10 21 -2 18 -45 -1 -25 2 -35
9 -31 6 4 5 0 -1 -9 -7 -8 -10 -18 -6 -22 11 -10 12 -37 2 -30 -5 3 -7 9 -4
14 3 5 1 11 -4 14 -5 4 -7 25 -5 47 4 28 2 39 -6 34 -6 -3 -8 -10 -5 -15 3 -5
1 -11 -3 -14 -10 -6 -9 -36 2 -54 4 -7 4 -11 -1 -10 -4 2 -9 -1 -11 -7 -2 -5
-11 -18 -19 -27 -9 -10 -13 -18 -8 -18 4 0 2 -6 -4 -13 -6 -8 -7 -18 -3 -22 4
-5 1 -5 -6 -1 -7 4 -9 13 -5 19 12 18 11 31 -5 49 -8 9 -11 21 -8 27 4 5 2 12
-3 15 -14 9 -20 -32 -6 -44 13 -11 14 -34 2 -46 -4 -4 -2 -13 4 -20 7 -9 6
-14 -3 -20 -7 -4 -10 -4 -6 1 4 4 3 14 -4 22 -9 11 -14 11 -32 -4 -12 -10 -16
-11 -9 -4 8 10 9 20 2 33 -5 10 -7 23 -4 28 3 5 1 11 -4 14 -5 3 -11 -3 -14
-14 -3 -11 -1 -23 5 -26 5 -3 6 -13 3 -23 -11 -25 -12 -55 -3 -67 5 -7 1 -17
-9 -25 -16 -12 -17 -12 -6 2 11 13 10 19 -5 33 -18 15 -20 15 -34 -1 -8 -10
-14 -31 -13 -46 1 -15 -1 -30 -5 -32 -3 -2 -6 21 -5 51 0 30 -4 59 -10 64 -7
6 -10 -16 -9 -66 0 -42 -3 -77 -6 -79 -4 -2 -6 8 -5 23 1 15 -2 32 -7 39 -5 7
-5 14 2 18 5 3 10 17 10 31 0 15 -4 23 -10 19 -6 -4 -8 -11 -4 -16 3 -5 1 -15
-4 -22 -12 -14 -10 -86 3 -107 8 -13 6 -13 -8 -1 -9 7 -15 17 -12 21 3 5 1 12
-5 15 -7 4 -8 11 -2 18 5 7 6 21 1 32 -8 21 -9 21 -14 -10 -1 -11 -6 -29 -10
-39 -6 -15 -5 -17 5 -11 8 5 11 4 7 -2 -4 -6 -1 -16 7 -22 12 -10 14 -29 6
-51 -1 -3 -2 -9 -1 -13 1 -5 -3 -6 -9 -2 -7 4 -7 12 -2 18 12 17 8 42 -6 39
-7 -1 -11 4 -10 10 2 7 -2 12 -9 11 -8 -2 -10 4 -6 15 6 14 4 15 -9 4 -9 -7
-15 -21 -13 -30 2 -9 4 -19 4 -22 1 -3 6 2 11 10 5 8 10 10 10 4 0 -6 -7 -17
-15 -24 -14 -11 -14 -15 2 -34 17 -21 17 -21 -2 -3 -11 10 -20 27 -20 37 0 11
-4 20 -10 20 -5 0 -10 -8 -10 -17 0 -10 -3 -23 -7 -29 -4 -6 -4 -14 -1 -18 11
-10 12 -37 2 -30 -5 3 -7 9 -4 13 2 5 -4 16 -15 26 -21 19 -28 7 -8 -13 7 -7
8 -12 4 -12 -5 0 -3 -6 3 -14 9 -11 9 -16 0 -22 -7 -4 -9 -3 -6 3 4 6 1 16 -7
22 -15 13 -15 34 2 75 19 44 7 42 -16 -3 -11 -21 -18 -42 -15 -45 3 -3 1 -12
-5 -19 -7 -8 -8 -18 -4 -22 4 -5 2 -5 -5 -1 -14 8 -32 -21 -28 -47 3 -15 1
-16 -11 -6 -12 9 -12 14 0 31 15 21 11 52 -5 43 -4 -3 -6 -12 -3 -19 8 -22
-12 -28 -27 -8 -13 15 -12 16 4 3 9 -7 17 -9 17 -3 0 14 -26 33 -34 25 -4 -4
-4 0 0 10 3 9 2 17 -4 17 -9 0 -42 70 -42 90 0 6 5 10 12 10 6 0 8 -3 5 -7 -4
-3 -2 -12 4 -20 6 -7 9 -13 5 -13 -4 0 0 -14 9 -30 9 -17 18 -30 21 -30 2 0 0
9 -6 21 -7 11 -9 24 -5 27 3 3 9 -5 12 -18 6 -22 7 -23 15 -4 8 17 8 17 4 -2
-2 -12 1 -28 6 -35 6 -10 8 -2 6 23 -2 21 0 34 6 31 5 -4 6 0 1 8 -7 11 -5 11
10 -1 10 -8 16 -10 12 -4 -7 13 16 38 26 28 3 -3 4 5 1 18 -4 20 -3 20 4 4 8
-19 9 -19 15 3 4 15 10 20 18 15 8 -5 10 -3 4 6 -6 9 -4 11 5 5 9 -6 11 -4 5
5 -5 9 -4 11 3 6 8 -5 10 -1 6 11 -5 15 -4 16 5 3 9 -13 11 -13 11 0 0 12 2
13 9 1 6 -10 12 -3 21 24 9 27 15 34 21 24 7 -12 9 -11 9 1 0 13 2 13 11 0 9
-13 10 -12 5 3 -3 10 -2 16 4 12 5 -3 8 0 7 7 -2 7 -2 9 1 5 2 -5 13 4 24 20
14 19 18 21 14 8 -6 -20 -6 -20 9 -1 8 11 15 25 15 30 0 6 5 4 10 -4 6 -10 7
-3 3 24 -4 26 -3 37 5 33 5 -4 8 -17 6 -30 -4 -20 -4 -21 5 -2 l10 20 1 -20 1
-20 8 20 c5 11 7 23 5 27 -3 4 1 10 7 14 8 5 9 3 4 -7 -7 -11 -6 -12 7 -2 8 7
17 10 20 8 9 -9 6 99 -2 110 -13 16 -13 27 2 36 9 6 9 9 1 9 -16 0 -28 -20
-29 -50 -3 -39 -3 -42 -13 -36 -5 3 -7 19 -6 35 1 16 -2 35 -7 43 -5 9 -7 4
-4 -14 3 -15 0 -30 -5 -33 -5 -4 -9 -1 -9 6 0 7 -3 9 -7 6 -3 -4 1 -15 10 -25
10 -10 14 -21 11 -25 -12 -12 -41 37 -39 65 1 15 -1 26 -5 23 -12 -8 -5 -49
13 -75 28 -40 19 -47 -14 -10 -17 19 -26 28 -20 19 9 -13 8 -19 -4 -29 -12
-10 -13 -16 -3 -27 16 -19 19 -41 7 -49 -5 -3 -9 4 -9 14 0 11 -7 25 -15 32
-14 12 -14 15 0 30 11 12 13 20 5 25 -6 4 -9 1 -8 -7 2 -7 -2 -12 -9 -11 -13
3 -11 -20 4 -38 6 -8 14 -30 17 -49 6 -29 5 -32 -5 -17 -6 11 -12 24 -13 31
-1 6 -10 22 -20 36 -10 14 -16 18 -13 8 3 -9 3 -19 -1 -23 -4 -4 -8 -15 -8
-26 -3 -36 -4 -40 -12 -35 -10 6 -10 46 0 62 4 6 1 11 -7 11 -7 0 -12 -8 -10
-18 2 -10 -1 -21 -6 -24 -5 -4 -6 -12 -2 -18 4 -7 9 -20 10 -31 3 -16 1 -17
-12 -6 -8 7 -13 15 -11 19 3 4 0 13 -5 21 -8 12 -9 11 -7 -5 2 -12 -2 -19 -10
-17 -10 2 -10 -2 -2 -17 7 -13 7 -22 0 -26 -10 -6 -11 -5 -14 14 0 5 -4 12 -8
16 -8 9 -5 -16 5 -32 4 -6 3 -14 -1 -17 -11 -7 -30 33 -26 57 1 9 -2 15 -6 12
-10 -6 -6 -34 7 -62 5 -10 8 -24 7 -30 -1 -7 -2 -18 -3 -24 0 -5 -5 -8 -10 -5
-4 3 -7 18 -5 33 l3 28 -29 -32 c-15 -17 -31 -29 -34 -25 -4 3 7 20 24 37 20
21 26 32 16 32 -8 0 -14 -5 -13 -11 1 -6 -4 -10 -11 -8 -6 1 -11 -4 -10 -10 2
-7 -2 -12 -8 -11 -7 1 -10 -12 -9 -33 1 -19 -2 -37 -7 -40 -4 -3 -8 0 -8 7 0
7 -3 9 -6 6 -4 -4 -3 -12 3 -19 5 -7 6 -26 2 -43 -8 -35 -10 -33 -15 15 -6 54
-7 57 -20 57 -10 0 -9 -5 2 -21 18 -27 18 -34 -3 -32 -29 2 -19 -49 27 -141
72 -145 181 -255 323 -325 102 -50 269 -88 387 -87 39 0 43 1 28 13 -17 12
-17 17 -3 62 8 27 15 65 15 85 0 20 7 42 14 49 23 19 48 105 51 179 1 37 7 83
13 102 5 19 13 66 16 104 l6 70 -36 24 c-19 14 -51 39 -71 57 -20 18 -41 30
-46 27 -6 -3 -7 -2 -4 4 7 11 -82 100 -96 95 -4 -1 -6 1 -3 6 3 4 -7 21 -21
38 -14 16 -32 40 -41 53 l-16 23 -23 -28 c-13 -16 -23 -24 -23 -18 0 6 9 23
21 38 13 16 16 26 8 24 -7 -2 -13 2 -14 9 0 7 -7 18 -15 25 -12 11 -12 11 -2
-3z m16 -50 c-3 -5 -10 -7 -15 -3 -5 3 -7 10 -3 15 3 5 10 7 15 3 5 -3 7 -10
3 -15z m71 -80 c-3 -4 -13 -6 -23 -4 -9 1 -22 -2 -28 -6 -7 -6 -16 -4 -22 4
-8 9 -5 21 10 45 l20 33 24 -32 c13 -18 21 -35 19 -40z m-139 -56 c0 -27 -5
-48 -11 -48 -19 0 -35 -16 -28 -28 3 -7 -3 -4 -15 7 -23 20 -24 20 -37 -38 -4
-19 -9 -26 -14 -18 -5 9 -11 5 -19 -13 -7 -14 -16 -23 -22 -20 -5 3 -14 -4
-20 -15 -6 -11 -15 -18 -21 -15 -5 4 -16 -9 -24 -27 -8 -18 -14 -28 -15 -21 0
6 -3 20 -6 30 -5 15 -4 16 6 3 10 -13 11 -12 6 3 -4 12 -2 16 6 11 7 -4 8 -3
4 4 -4 7 1 10 13 7 15 -3 18 0 14 12 -5 11 -3 14 6 8 10 -6 11 -3 2 14 -14 25
-23 28 -14 4 4 -11 3 -14 -5 -9 -8 5 -10 1 -5 -11 4 -11 2 -15 -3 -10 -11 10
-13 58 -3 51 11 -6 22 15 24 45 0 14 4 25 8 24 4 -2 7 -5 7 -8 -1 -9 30 -65
36 -65 5 0 26 48 29 65 1 6 -5 17 -12 26 -11 14 -11 18 1 28 11 9 15 8 21 -6
5 -10 7 -25 6 -33 -1 -8 8 0 20 18 21 33 35 43 26 19 -3 -8 -1 -20 5 -28 8
-12 9 -11 5 2 -3 8 1 26 8 39 7 13 10 31 7 39 -3 8 -1 12 5 8 6 -4 10 -28 9
-54z m207 -16 c7 3 4 -3 -6 -14 -9 -11 -14 -23 -10 -28 5 -4 2 -5 -5 -1 -10 6
-10 11 -2 21 8 9 8 15 0 20 -5 3 -10 12 -10 18 0 7 5 4 11 -6 6 -10 16 -14 22
-10z m17 -22 c-7 -8 -9 -15 -5 -15 5 0 1 -8 -8 -18 -10 -10 -14 -22 -10 -27 5
-4 2 -5 -5 -1 -11 6 -10 12 4 27 9 10 14 19 9 19 -4 0 -2 7 5 15 7 8 15 15 17
15 3 0 0 -7 -7 -15z m-69 -62 c13 -16 12 -17 -3 -4 -10 7 -18 15 -18 17 0 8 8
3 21 -13z m-12 -17 c8 -10 9 -16 1 -21 -6 -4 -9 -1 -8 7 2 7 -3 12 -10 10 -8
-1 -11 2 -7 8 8 13 10 13 24 -4z m-373 -65 c-10 -10 -13 -26 -9 -40 4 -15 2
-22 -4 -18 -5 3 -20 -7 -32 -23 -12 -17 -26 -29 -31 -27 -6 1 -16 -9 -23 -22
-6 -13 -15 -22 -18 -20 -4 2 -16 -4 -26 -14 -26 -22 -32 -14 -23 29 4 18 5 34
2 34 -3 0 -1 5 5 11 6 6 9 18 6 27 -5 10 -2 13 6 8 8 -5 10 -17 6 -30 -3 -11
-8 -34 -10 -51 -2 -16 -1 -22 2 -12 4 15 7 16 21 5 13 -11 14 -11 7 1 -5 9 -4
12 3 7 7 -4 10 1 7 14 -2 11 0 18 5 15 4 -3 6 5 2 17 -3 14 -2 19 7 14 6 -4 8
-13 5 -19 -5 -8 -3 -8 6 0 8 7 15 21 16 30 6 40 11 53 29 73 18 20 20 20 26 3
7 -16 8 -16 8 -1 1 9 -3 20 -9 23 -5 3 -10 12 -10 18 1 7 10 1 21 -12 17 -21
18 -26 5 -40z m271 12 c-4 -3 -1 -13 6 -22 11 -14 10 -14 -5 -2 -16 12 -16 31
-1 31 4 0 3 -3 0 -7z m-21 -39 c1 -9 0 -13 -4 -10 -3 4 -7 14 -8 22 -1 9 0 13
4 10 3 -4 7 -14 8 -22z m61 11 c0 -8 -4 -12 -9 -9 -5 3 -6 10 -3 15 9 13 12
11 12 -6z m-414 -17 c-5 -7 -10 -22 -11 -33 -3 -42 -9 -60 -18 -55 -5 3 -7 10
-5 15 2 6 5 23 7 38 1 15 8 34 14 43 15 17 27 10 13 -8z m303 -10 c4 -7 3 -8
-5 -4 -8 5 -10 0 -7 -18 3 -14 1 -28 -3 -30 -6 -4 -8 51 -2 62 3 5 10 1 17
-10z m94 6 c0 -8 -19 -13 -24 -6 -3 5 1 9 9 9 8 0 15 -2 15 -3z m-379 -26 c11
-21 11 -22 -4 -9 -10 7 -17 17 -17 22 0 15 9 10 21 -13z m226 -93 c0 -8 -4
-12 -9 -9 -5 3 -6 10 -3 15 9 13 12 11 12 -6z m-86 -28 c-6 -8 -7 -18 -3 -22
4 -5 1 -5 -6 -1 -10 6 -10 11 -1 22 6 8 14 14 16 14 3 0 0 -6 -6 -13z m-35
-62 c-1 -8 -5 -17 -8 -21 -4 -3 -5 2 -4 13 2 10 -2 25 -8 33 -9 13 -9 13 6 2
9 -7 15 -19 14 -27z m-82 -21 c3 -8 2 -12 -4 -9 -6 3 -10 10 -10 16 0 14 7 11
14 -7z m53 -19 c0 -8 -4 -12 -9 -9 -5 3 -6 10 -3 15 9 13 12 11 12 -6z m-75
-9 c-4 -6 -7 -14 -7 -18 0 -19 -11 -14 -11 6 0 12 6 23 13 23 6 0 9 -5 5 -11z"/>
<path d="M596 945 c-9 -13 -12 -26 -7 -30 5 -3 12 -1 16 4 3 5 14 8 25 6 17
-3 18 -1 10 15 -16 30 -27 31 -44 5z m34 -7 c0 -6 -3 -8 -7 -5 -3 4 -13 1 -21
-6 -13 -11 -14 -9 -2 10 14 22 30 22 30 1z"/>
<path d="M502 845 c0 -16 2 -22 5 -12 2 9 2 23 0 30 -3 6 -5 -1 -5 -18z"/>
<path d="M457 826 c-3 -8 -2 -18 3 -21 13 -8 20 9 11 24 -6 10 -10 9 -14 -3z"/>
<path d="M411 764 c0 -11 3 -14 6 -6 3 7 2 16 -1 19 -3 4 -6 -2 -5 -13z"/>
<path d="M346 761 c-4 -5 -2 -20 3 -33 9 -21 10 -21 11 -3 l1 20 10 -20 9 -20
-3 20 c-2 11 -9 19 -16 17 -9 -2 -11 3 -8 13 7 16 2 21 -7 6z"/>
<path d="M251 674 c-1 -12 -8 -27 -16 -34 -8 -7 -12 -16 -9 -22 3 -5 0 -15 -6
-23 -7 -8 -10 -15 -7 -15 2 0 16 15 29 33 18 24 23 38 17 57 -6 22 -7 23 -8 4z
m9 -28 c0 -2 -8 -10 -17 -17 -16 -13 -17 -12 -4 4 13 16 21 21 21 13z"/>
<path d="M523 1035 c0 -8 4 -12 9 -9 5 3 6 10 3 15 -9 13 -12 11 -12 -6z"/>
<path d="M1974 996 c-3 -15 -15 -31 -25 -37 -11 -5 -19 -19 -19 -30 0 -18 4
-20 26 -15 15 4 39 10 55 13 l29 6 -22 36 c-32 54 -36 56 -44 27z"/>
<path d="M740 946 c0 -2 7 -9 15 -16 9 -7 15 -8 15 -2 0 5 -7 12 -15 16 -8 3
-15 4 -15 2z"/>
<path d="M383 933 c4 -3 1 -13 -6 -22 -11 -14 -10 -14 5 -2 16 12 16 31 1 31
-4 0 -3 -3 0 -7z"/>
<path d="M655 901 c-3 -6 -14 -8 -25 -6 -16 3 -18 0 -10 -20 7 -17 4 -27 -9
-39 -20 -18 -23 -45 -9 -63 12 -14 32 -7 22 8 -3 5 -9 7 -13 4 -5 -2 -6 8 -3
23 l6 27 7 -25 c8 -28 11 -26 13 10 1 14 5 31 9 38 5 6 5 12 1 12 -4 0 1 9 11
20 10 11 15 20 12 20 -3 0 -8 -4 -12 -9z"/>
<path d="M858 830 c85 -82 104 -94 95 -61 -7 27 -60 74 -123 110 l-55 31 83
-80z"/>
<path d="M263 825 c0 -8 4 -12 9 -9 5 3 6 10 3 15 -9 13 -12 11 -12 -6z"/>
<path d="M533 806 c1 -5 -5 -10 -13 -11 -8 0 -20 -11 -27 -25 -7 -14 -17 -24
-23 -22 -5 1 -10 -2 -10 -6 0 -5 -7 -17 -15 -28 -13 -16 -14 -16 -9 -1 7 20
-1 23 -9 3 -3 -8 2 -20 11 -28 13 -11 14 -11 7 1 -6 10 -4 12 4 6 9 -5 10 -10
2 -18 -17 -17 -13 -31 4 -17 10 8 14 24 12 39 -2 14 -2 20 0 13 3 -7 8 -10 13
-7 5 3 7 13 4 23 -5 14 -4 14 4 3 7 -10 7 -20 -1 -32 -9 -14 -8 -21 2 -31 11
-11 13 -10 9 2 -3 8 -1 23 4 33 6 11 6 23 0 30 -6 7 -6 21 -1 36 8 19 12 21
24 11 8 -7 13 -16 10 -20 -9 -15 6 -38 22 -36 21 3 25 32 8 46 -7 6 -11 19 -8
29 3 11 -1 18 -11 18 -8 0 -14 -5 -13 -11z m14 -21 c0 -8 -4 -12 -9 -9 -5 3
-6 10 -3 15 9 13 12 11 12 -6z m23 -31 c0 -8 -19 -13 -24 -6 -3 5 1 9 9 9 8 0
15 -2 15 -3z"/>
<path d="M243 795 c0 -8 4 -12 9 -9 5 3 6 10 3 15 -9 13 -12 11 -12 -6z"/>
<path d="M376 670 c-9 -17 -22 -28 -27 -25 -8 6 -13 -11 -12 -42 1 -7 -3 -10
-8 -7 -5 3 -9 1 -9 -5 0 -5 4 -12 9 -15 10 -7 24 22 16 34 -5 8 12 26 30 32 6
1 10 8 10 13 0 6 4 16 9 23 4 7 6 15 4 17 -2 3 -12 -9 -22 -25z"/>
<path d="M36 630 c3 -14 6 -34 6 -45 0 -11 2 -14 5 -7 3 6 10 9 16 5 9 -5 8
-2 0 8 -7 8 -17 26 -23 40 l-11 24 7 -25z"/>
<path d="M95 641 c-3 -5 -2 -12 3 -15 5 -3 9 1 9 9 0 17 -3 19 -12 6z"/>
<path d="M313 620 c-7 -18 -16 -29 -21 -26 -15 9 -39 -27 -39 -59 0 -16 -2
-34 -4 -40 -2 -5 1 -11 6 -12 6 -2 10 5 10 15 0 25 15 43 27 36 6 -4 8 -2 5 3
-4 6 0 16 8 23 8 7 12 16 9 21 -3 5 0 18 6 29 6 12 10 26 8 31 -2 5 -9 -4 -15
-21z m-23 -65 c-9 -11 -16 -13 -23 -6 -7 7 -6 15 3 26 9 11 16 13 23 6 7 -7 6
-15 -3 -26z"/>
<path d="M277 573 c-4 -3 -7 -11 -7 -17 0 -6 5 -5 12 2 6 6 9 14 7 17 -3 3 -9
2 -12 -2z"/>
<path d="M225 548 c-6 -13 -17 -23 -25 -23 -11 0 -15 -11 -15 -42 0 -23 -3
-39 -8 -36 -5 3 -6 11 -4 17 3 7 1 19 -4 27 -6 10 -9 5 -9 -16 0 -43 13 -60
30 -40 7 8 10 18 7 22 -4 3 5 26 19 50 14 25 24 49 22 54 -2 5 -8 -1 -13 -13z
m-20 -37 c3 -5 2 -12 -3 -15 -5 -3 -9 1 -9 9 0 17 3 19 12 6z"/>
<path d="M120 451 c0 -6 4 -13 10 -16 6 -3 7 1 4 9 -7 18 -14 21 -14 7z"/>
</g>
</svg>
